<?xml version="1.0" standalone="no"?>
<!DOCTYPE svg PUBLIC "-//W3C//DTD SVG 20010904//EN"
 "http://www.w3.org/TR/2001/REC-SVG-20010904/DTD/svg10.dtd">
<svg version="1.0" xmlns="http://www.w3.org/2000/svg"
 width="460.000000pt" height="460.000000pt" viewBox="0 0 460.000000 460.000000"
 preserveAspectRatio="xMidYMid meet">
<metadata>
Created by potrace 1.14, written by Peter Selinger 2001-2017
</metadata>
<g transform="translate(0.000000,460.000000) scale(0.100000,-0.100000)"
fill="#000000" stroke="none">
<path d="M277 4537 l6 -63 -90 2 c-49 1 -99 7 -111 13 -15 8 -23 8 -28 0 -4
-8 -12 -3 -20 12 -7 13 -13 18 -14 11 0 -7 -5 -10 -10 -7 -6 4 -10 -41 -10
-129 0 -98 3 -136 13 -139 9 -3 9 -9 0 -26 -8 -13 -13 -61 -13 -132 l0 -111
29 31 c31 34 51 40 51 16 0 -8 -5 -15 -12 -15 -6 0 -8 -3 -5 -6 4 -4 13 -2 21
5 9 8 21 8 39 2 30 -12 41 -27 27 -36 -17 -10 0 -26 21 -20 13 4 19 2 19 -9 0
-9 -7 -16 -15 -16 -8 0 -15 -6 -15 -14 0 -10 -22 -16 -80 -21 l-80 -7 0 -329
c0 -213 4 -329 10 -329 6 0 10 -7 10 -15 0 -8 -4 -15 -10 -15 -6 0 -10 -37
-10 -90 0 -74 3 -91 17 -99 17 -10 17 -10 1 -11 -13 0 -18 -8 -18 -31 0 -16 4
-28 9 -25 5 3 12 -1 15 -10 9 -23 8 -27 -9 -20 -13 5 -15 -24 -15 -219 l0
-225 97 0 c53 0 94 -2 91 -5 -2 -3 -36 -5 -74 -6 -96 -1 -114 -7 -114 -34 0
-24 0 -24 160 5 53 10 146 15 223 12 46 -2 50 -22 4 -22 -18 0 -37 -4 -42 -9
-15 -15 -100 -27 -91 -13 4 7 1 12 -9 12 -13 0 -14 -4 -5 -20 10 -19 9 -19
-15 -8 -22 10 -28 9 -36 -3 -8 -12 -10 -12 -19 1 -6 9 -13 11 -18 5 -18 -25
-49 -33 -93 -24 -24 4 -47 8 -51 9 -5 0 -8 -146 -8 -325 0 -253 3 -325 13
-326 6 -1 30 -2 52 -3 45 -1 60 -27 27 -45 -15 -8 -23 -6 -37 9 -13 15 -22 17
-36 9 -18 -9 -19 -34 -19 -630 l0 -621 112 6 c62 4 134 9 161 12 31 4 47 2 47
-5 0 -6 -12 -12 -27 -12 l-28 -1 30 -7 c17 -3 31 -14 33 -24 4 -19 -7 -20
-159 -17 -55 1 -89 -3 -94 -10 -4 -6 -20 -8 -41 -4 l-34 6 0 -186 0 -186 114
0 c108 0 114 1 109 19 -6 25 26 31 82 15 45 -12 195 -7 195 7 0 5 15 9 33 9
35 0 87 39 87 65 0 8 5 15 10 15 6 0 10 8 11 18 0 9 10 35 22 58 12 22 33 63
47 90 14 27 28 50 32 52 5 2 8 11 8 21 0 9 5 22 12 29 15 15 -62 16 -177 2
-44 -5 -110 -11 -147 -13 -66 -4 -68 -4 -68 20 0 15 -8 27 -23 32 -20 8 -19 9
13 14 19 3 125 11 235 17 170 9 204 14 232 31 18 11 33 26 33 33 0 18 24 66
33 66 4 0 21 15 38 32 69 76 92 98 110 103 11 4 19 11 19 16 0 5 8 9 18 9 10
0 27 7 38 15 10 8 27 15 37 15 9 0 17 4 17 8 0 9 71 47 108 57 12 4 22 11 22
16 0 6 14 15 30 20 17 6 30 15 30 21 0 6 7 8 15 4 9 -3 41 7 73 22 31 14 62
27 68 27 15 0 174 95 174 103 0 4 14 13 30 20 19 9 32 24 36 40 4 15 18 39 33
53 14 15 35 37 46 51 12 15 48 33 93 47 68 21 84 22 258 17 174 -5 220 -8 319
-22 113 -15 193 -15 245 0 29 9 66 16 81 16 15 0 29 7 33 16 3 8 11 12 17 8
23 -14 129 33 129 57 0 4 -9 11 -20 14 -26 8 -26 25 1 25 31 0 60 -18 104 -65
25 -27 64 -52 105 -69 36 -15 83 -43 106 -61 28 -24 62 -39 105 -49 114 -25
167 -48 180 -78 6 -15 26 -34 45 -43 19 -9 34 -20 34 -25 0 -5 10 -20 23 -33
66 -71 87 -102 87 -129 0 -17 9 -38 23 -51 26 -24 41 -55 38 -74 -1 -7 3 -13
9 -13 5 0 10 -6 10 -13 0 -8 9 -22 20 -32 11 -10 20 -26 20 -36 0 -10 4 -20 9
-23 5 -3 12 -22 15 -41 4 -20 17 -57 28 -83 28 -62 56 -171 53 -202 -2 -14 0
-27 4 -30 14 -10 51 -82 51 -99 0 -10 11 -28 25 -41 16 -15 25 -34 25 -55 0
-62 11 -65 263 -65 l227 0 -1 593 c0 339 -4 583 -9 572 -7 -16 -9 -17 -9 -3
-1 9 4 20 9 23 7 4 10 463 10 1346 0 1313 0 1339 -19 1339 -11 0 -21 -5 -23
-11 -2 -6 -13 -9 -23 -7 -18 5 -18 6 5 15 l25 11 -28 11 c-16 6 -47 11 -70 11
-23 0 -58 5 -77 10 -19 6 -50 13 -68 15 -18 3 -46 12 -62 20 -16 8 -36 15 -45
15 -9 0 -23 7 -31 15 -9 8 -29 15 -45 15 -17 0 -37 7 -45 15 -13 13 -11 15 13
20 15 3 42 10 59 15 45 15 68 12 97 -10 29 -23 44 -11 25 20 -7 11 -16 20 -19
20 -3 0 -19 11 -35 25 -16 14 -37 25 -46 25 -9 0 -20 5 -23 11 -4 5 -30 9 -58
8 -29 -1 -64 1 -79 6 -19 5 -28 3 -28 -4 0 -9 -5 -9 -21 0 -12 6 -32 9 -45 6
-13 -2 -29 2 -35 9 -6 7 -17 10 -25 7 -9 -3 -26 0 -38 7 -17 9 -23 21 -24 50
-1 22 2 41 6 44 4 3 9 24 11 47 1 23 4 46 7 50 2 4 -6 5 -17 2 -21 -6 -21 -5
-4 21 20 30 18 29 68 15 24 -6 37 -16 37 -27 0 -14 2 -15 10 -2 5 9 5 19 -1
27 -25 29 116 28 201 -2 45 -15 52 -18 123 -49 21 -9 45 -16 55 -17 9 0 40
-14 67 -30 28 -15 61 -34 75 -41 14 -7 27 -15 30 -18 3 -3 16 -11 30 -17 14
-7 40 -22 58 -33 l32 -22 0 112 0 112 -27 -5 c-30 -6 -55 1 -48 13 6 10 -43
46 -70 51 -11 3 -21 13 -24 24 -5 26 -30 43 -53 37 -10 -2 -18 1 -18 7 0 6 -9
11 -20 11 -11 0 -20 7 -20 15 0 8 5 15 10 15 6 0 10 5 10 11 0 6 -7 8 -16 5
-12 -4 -15 -2 -10 9 5 13 -40 15 -374 15 -355 0 -380 -1 -380 -17 0 -10 -4
-24 -9 -32 -7 -11 -13 -11 -32 3 -13 9 -43 16 -66 16 -32 0 -43 4 -43 15 0 13
-28 15 -195 15 l-195 0 0 -28 c0 -15 12 -45 26 -65 35 -52 25 -56 -19 -7 -35
38 -37 39 -42 17 -5 -18 -13 -22 -51 -23 -50 -2 -50 -2 -20 69 l16 37 -45 0
c-31 0 -45 -4 -45 -13 0 -13 -40 -37 -62 -37 -6 0 -16 -7 -22 -16 -6 -8 -18
-16 -26 -18 -40 -8 -72 -27 -67 -40 7 -17 -64 -84 -138 -131 -49 -31 -150 -65
-194 -65 -12 0 -20 -4 -17 -9 3 -5 -2 -12 -11 -15 -23 -9 -173 4 -173 15 0 5
-6 9 -14 9 -7 0 -19 7 -27 16 -11 13 -8 19 16 39 17 13 49 25 76 28 25 3 72
15 105 26 32 12 66 21 76 21 10 0 18 5 18 10 0 6 11 10 24 10 13 0 42 7 65 15
23 8 49 11 58 8 11 -4 14 -3 9 5 -4 7 -1 12 6 13 7 1 21 2 30 3 10 0 19 6 19
11 1 6 16 17 32 24 17 8 25 17 18 19 -7 2 4 13 24 23 20 11 40 17 45 14 6 -4
10 -2 10 3 0 5 10 14 23 20 19 9 15 11 -30 11 -41 1 -69 -7 -134 -39 -57 -28
-97 -40 -128 -41 -44 -1 -44 -1 -16 -10 17 -5 44 -7 60 -4 24 4 26 3 10 -4
-64 -30 -201 2 -272 64 -24 20 -43 33 -43 28 0 -12 32 -38 95 -79 64 -41 71
-50 43 -57 -52 -14 -206 38 -215 73 -3 11 -9 20 -14 20 -23 0 31 -74 76 -105
18 -12 17 -13 -10 -8 -17 3 -44 16 -62 29 -17 13 -38 24 -46 24 -8 0 -21 8
-30 18 -19 20 -23 52 -7 52 6 0 10 -5 10 -11 0 -5 4 -8 9 -5 10 6 -9 56 -21
56 -6 0 -23 -47 -30 -85 -2 -11 -7 5 -12 35 -10 73 -26 48 -26 -43 0 -67 0
-67 -19 -50 -30 28 -41 65 -27 91 7 13 15 19 19 16 4 -4 7 2 7 14 l0 22 -356
0 c-367 0 -384 -2 -384 -40 0 -6 -7 -18 -15 -26 -13 -14 -15 -13 -15 8 l0 23
-13 -25 c-20 -40 -41 -31 -48 20 l-6 45 -2 -40 -2 -40 -17 38 -17 37 -392 0
-392 0 6 -63z m3208 3 c13 -5 14 -9 5 -9 -8 0 -24 4 -35 9 -13 5 -14 9 -5 9 8
0 24 -4 35 -9z m743 4 c12 -4 22 -10 22 -14 0 -13 -54 -19 -62 -7 -17 27 -5
33 40 21z m82 -4 c0 -5 -9 -10 -20 -10 -11 0 -20 5 -20 10 0 6 9 10 20 10 11
0 20 -4 20 -10z m25 -25 c-23 -8 -83 -10 -79 -3 3 4 24 8 47 7 23 0 38 -2 32
-4z m-2868 -27 c-3 -8 -6 -5 -6 6 -1 11 2 17 5 13 3 -3 4 -12 1 -19z m-171
-35 c-10 -10 -19 5 -10 18 6 11 8 11 12 0 2 -7 1 -15 -2 -18z m124 -62 c0 -6
-4 -13 -10 -16 -5 -3 -10 1 -10 9 0 9 5 16 10 16 6 0 10 -4 10 -9z m-1212 -49
c2 -7 -3 -12 -12 -12 -9 0 -16 7 -16 16 0 17 22 14 28 -4z m1652 10 c0 -4 -13
-22 -30 -40 -16 -18 -30 -37 -30 -43 0 -5 -6 -9 -14 -9 -7 0 -19 -7 -26 -15
-7 -8 -18 -15 -24 -15 -6 0 -3 5 7 11 9 5 17 14 17 19 0 5 -8 7 -17 3 -11 -3
-4 8 15 26 17 18 32 35 32 40 0 4 12 12 28 18 35 14 42 15 42 5z m-1692 -31
c12 0 22 -5 22 -10 0 -4 -25 -7 -55 -6 -30 1 -55 -2 -55 -6 0 -4 -9 -5 -20 -2
-11 3 -20 11 -20 18 0 10 14 13 53 10 28 -1 62 -3 75 -4z m52 -11 c0 -5 -4
-10 -10 -10 -5 0 -10 5 -10 10 0 6 5 10 10 10 6 0 10 -4 10 -10z m1377 -65
c24 -48 25 -57 13 -65 -8 -5 -18 -10 -21 -10 -7 0 -39 66 -50 103 -6 23 -5 27
11 27 12 0 28 -18 47 -55z m83 14 c12 -23 20 -42 18 -44 -13 -11 -48 -24 -47
-18 3 20 -3 35 -22 54 -16 16 -18 23 -8 35 20 24 38 16 59 -27z m1938 1 c9 1
28 7 42 15 44 25 56 11 20 -25 -27 -27 -164 -40 -173 -16 -4 10 -18 16 -41 16
-19 0 -38 5 -42 12 -5 8 5 9 37 4 136 -20 138 -20 135 0 -2 11 -1 13 1 7 3 -7
12 -13 21 -13z m-3538 10 c0 -5 -4 -10 -10 -10 -5 0 -10 5 -10 10 0 6 5 10 10
10 6 0 10 -4 10 -10z m1432 -39 c-1 -13 4 -34 12 -46 16 -24 12 -35 -13 -35
-17 1 -63 88 -55 102 3 5 18 8 32 6 22 -2 26 -8 24 -27z m496 -34 c25 -26 29
-36 20 -45 -7 -7 -8 -12 -2 -12 6 0 15 5 22 12 11 11 13 9 11 -8 0 -4 5 -10
13 -15 8 -5 4 -7 -12 -5 -43 6 -62 17 -55 34 3 9 3 13 -1 9 -11 -10 -44 23
-44 45 0 26 12 22 48 -15z m-828 19 c0 -11 -19 -15 -25 -6 -3 5 1 10 9 10 9 0
16 -2 16 -4z m252 -51 c5 -20 3 -32 -5 -37 -19 -12 -24 -10 -37 23 -11 26 -11
32 1 40 21 13 32 6 41 -26z m-1172 11 c0 -8 -7 -16 -15 -20 -17 -6 -18 -4 -9
18 8 20 24 21 24 2z m1450 4 c0 -5 -7 -10 -15 -10 -8 0 -15 5 -15 10 0 6 7 10
15 10 8 0 15 -4 15 -10z m1567 -10 c-1 -12 -7 -18 -14 -16 -7 3 -13 1 -13 -4
0 -6 8 -10 18 -11 10 0 12 -3 5 -6 -7 -2 -13 -12 -13 -20 0 -10 -6 -14 -20
-10 -11 3 -22 1 -25 -3 -3 -4 -15 -5 -28 -2 -20 6 -20 7 8 12 22 4 31 11 33
30 6 39 52 67 49 30z m-1641 -29 c-10 -16 -36 -13 -36 3 0 17 21 27 34 16 4
-5 5 -13 2 -19z m-86 -16 c0 -8 -9 -15 -19 -15 -24 0 -36 16 -19 23 24 10 38
7 38 -8z m815 5 c-3 -5 -34 -9 -68 -8 -62 1 -62 1 -17 8 70 11 92 11 85 0z
m1508 -7 c-7 -2 -19 -2 -25 0 -7 3 -2 5 12 5 14 0 19 -2 13 -5z m-3733 -7 c0
-11 -19 -15 -25 -6 -3 5 1 10 9 10 9 0 16 -2 16 -4z m1324 -22 c9 -22 7 -34
-3 -34 -15 0 -42 31 -36 41 10 14 32 10 39 -7z m2163 -20 c-3 -3 -12 -4 -19
-1 -8 3 -5 6 6 6 11 1 17 -2 13 -5z m-1291 -13 c-7 -10 -123 -22 -143 -14 -12
5 -12 7 -1 14 17 11 151 12 144 0z m1169 -19 c-3 -3 -11 0 -18 7 -9 10 -8 11
6 5 10 -3 15 -9 12 -12z m-2141 -26 c28 -8 78 -20 111 -27 73 -16 138 -43 127
-54 -4 -5 -1 -5 6 -1 16 9 122 -58 122 -77 0 -8 -2 -9 -8 -1 -4 6 -17 14 -30
18 -12 4 -20 11 -17 16 8 13 -20 19 -36 8 -11 -8 -10 -9 4 -4 9 3 17 1 17 -5
0 -11 -27 -9 -130 11 -30 6 -82 15 -115 20 -33 5 -74 13 -91 18 -35 11 -157 1
-355 -28 -153 -22 -211 -25 -239 -10 -16 8 -18 8 -14 -5 4 -8 2 -15 -2 -16
-44 -6 -73 -5 -69 1 2 4 -7 5 -20 2 -14 -2 -33 -1 -42 3 -15 5 -11 11 22 31
29 17 55 24 93 24 30 0 68 6 85 14 18 7 100 27 182 44 172 34 317 41 399 18z
m1824 -23 c-18 -22 -28 -14 -16 12 8 18 14 22 19 13 4 -7 3 -18 -3 -25z m-301
-23 c-5 -19 0 -20 76 -21 l82 -1 -55 -9 c-30 -5 -63 -10 -72 -11 -10 -1 -18
-8 -18 -15 0 -12 -13 -17 -33 -14 -27 5 11 -19 63 -40 56 -22 84 -48 39 -36
-16 4 -18 3 -8 -9 9 -11 7 -14 -10 -14 -12 0 -25 8 -28 18 -7 19 -22 32 -38
32 -5 0 -3 -5 5 -11 12 -9 12 -10 -3 -5 -10 3 -25 6 -33 6 -8 0 -11 6 -8 15 4
8 1 15 -5 15 -6 0 -20 9 -31 20 -19 19 -19 19 28 60 26 22 49 40 51 40 2 0 1
-9 -2 -20z m-2230 -6 c-3 -3 -12 -4 -19 -1 -8 3 -5 6 6 6 11 1 17 -2 13 -5z
m2613 -4 c0 -5 -3 -10 -7 -11 -5 0 -21 -2 -38 -4 -16 -3 -39 -2 -50 2 l-20 6
20 8 c29 11 95 11 95 -1z m-1012 -7 c-10 -2 -26 -2 -35 0 -10 3 -2 5 17 5 19
0 27 -2 18 -5z m885 0 c-7 -2 -19 -2 -25 0 -7 3 -2 5 12 5 14 0 19 -2 13 -5z
m-2616 -9 c-3 -3 -12 -4 -19 -1 -8 3 -5 6 6 6 11 1 17 -2 13 -5z m-87 -15
c-25 -4 -56 -7 -70 -7 -38 1 37 15 80 15 32 0 31 0 -10 -8z m2232 -4 c43 -15
88 -47 88 -64 0 -4 -15 -8 -32 -8 -127 -2 -333 -15 -347 -22 -9 -5 -38 -12
-66 -16 -27 -4 -54 -11 -60 -14 -5 -4 -23 -8 -40 -10 -16 -2 -45 -11 -65 -22
-19 -10 -53 -27 -75 -38 -22 -11 -53 -31 -70 -45 -28 -22 -32 -23 -57 -10 -30
15 -37 47 -15 67 90 85 270 158 462 187 91 14 229 11 277 -5z m468 0 c0 -8 -7
-15 -15 -15 -16 0 -20 12 -8 23 11 12 23 8 23 -8z m-2840 -16 c-25 -4 -58 -7
-75 -7 -25 1 -24 2 10 8 22 4 56 7 75 7 31 0 30 0 -10 -8z m2960 -42 c0 -8 -7
-14 -15 -14 -11 0 -12 4 -4 14 6 7 13 13 15 13 2 0 4 -6 4 -13z m-175 -27 c3
-6 -1 -13 -10 -16 -19 -8 -30 0 -20 15 8 14 22 14 30 1z m-1474 -116 c33 -15
59 -30 59 -35 0 -11 -69 -8 -76 3 -7 12 -132 10 -139 -2 -3 -5 -15 -10 -26
-10 -10 0 -19 -4 -19 -8 0 -4 -19 -13 -43 -20 -23 -7 -57 -26 -75 -43 -18 -17
-36 -28 -40 -25 -25 15 -77 -83 -55 -105 7 -7 34 -14 62 -17 47 -4 49 -6 38
-25 -7 -11 -24 -32 -38 -47 -14 -14 -31 -47 -38 -73 -8 -25 -20 -52 -27 -58
-8 -6 -14 -18 -14 -25 0 -8 -15 -31 -33 -51 -19 -21 -36 -45 -39 -53 -6 -16
-71 -20 -86 -6 -11 12 -73 36 -91 36 -20 0 -61 43 -61 63 0 22 -76 96 -105
103 -38 9 -79 99 -65 141 15 42 44 57 84 43 18 -6 93 -12 167 -14 74 -3 149
-9 167 -15 27 -8 32 -7 32 7 0 23 79 128 107 143 12 7 29 27 38 46 13 27 20
32 39 27 14 -3 38 2 57 12 81 41 140 44 220 8z m1832 -35 c-14 -14 -108 -22
-143 -13 l-25 7 30 7 c52 13 151 12 138 -1z m-1287 -23 c3 -8 16 -17 29 -20
21 -5 41 -33 31 -43 -2 -2 -25 5 -50 17 -50 22 -106 29 -148 17 -22 -6 -26 -4
-22 8 12 31 149 49 160 21z m1181 -21 c8 -8 18 -13 22 -11 4 3 12 -4 19 -15
10 -15 10 -19 -2 -19 -16 0 -66 38 -66 51 0 13 9 11 27 -6z m203 -30 c-7 -9
-15 -13 -18 -10 -3 3 -11 0 -19 -6 -10 -9 -13 -8 -13 5 0 9 8 16 19 16 11 0
23 5 26 11 4 6 9 8 12 5 3 -3 0 -12 -7 -21z m-1413 -11 c16 -3 40 -14 53 -25
l25 -19 -30 5 c-16 3 -56 11 -87 16 -32 6 -55 15 -52 20 6 10 48 12 91 3z
m1343 -4 c0 -5 -4 -10 -10 -10 -5 0 -10 5 -10 10 0 6 5 10 10 10 6 0 10 -4 10
-10z m527 -46 c-3 -3 -12 -4 -19 -1 -8 3 -5 6 6 6 11 1 17 -2 13 -5z m162 -20
c5 4 12 2 16 -4 3 -5 1 -10 -5 -10 -7 0 -10 -7 -6 -17 5 -15 3 -14 -9 2 -9 11
-29 21 -45 21 -17 1 -41 2 -55 3 -42 2 -28 20 18 23 25 2 49 -3 59 -10 9 -8
21 -11 27 -8z m101 -47 c11 -5 9 -6 -4 -4 -11 1 -21 9 -23 17 -3 10 -2 11 4 4
4 -6 15 -14 23 -17z m-4110 -257 c0 -5 -5 -10 -11 -10 -5 0 -7 5 -4 10 3 6 8
10 11 10 2 0 4 -4 4 -10z m-53 -16 c-3 -3 -12 -4 -19 -1 -8 3 -5 6 6 6 11 1
17 -2 13 -5z m-17 -184 c0 -5 -7 -10 -16 -10 -8 0 -12 5 -9 10 3 6 10 10 16
10 5 0 9 -4 9 -10z m70 -20 c0 -5 -7 -10 -15 -10 -8 0 -15 5 -15 10 0 6 7 10
15 10 8 0 15 -4 15 -10z m4065 -59 c72 -21 181 -80 178 -97 -1 -5 9 -10 22
-10 25 -2 115 -61 115 -76 0 -4 -7 -8 -15 -8 -8 0 -15 4 -15 8 0 5 -33 23 -72
41 -110 49 -181 85 -196 99 -7 6 -19 12 -27 12 -7 0 -16 7 -19 15 -3 9 -11 15
-18 14 -21 -2 -58 12 -58 23 0 5 8 7 18 4 9 -2 49 -14 87 -25z m-4132 -35 c4
-10 1 -13 -8 -9 -8 3 -12 9 -9 14 7 12 11 11 17 -5z m115 -8 c-6 -18 -28 -21
-28 -4 0 9 7 16 16 16 9 0 14 -5 12 -12z m-58 -78 c0 -5 -4 -10 -9 -10 -6 0
-13 5 -16 10 -3 6 1 10 9 10 9 0 16 -4 16 -10z m-28 -102 c-9 -9 -12 -7 -12
12 0 19 3 21 12 12 9 -9 9 -15 0 -24z m-32 -57 c0 -15 -5 -17 -27 -12 -26 5
-26 6 -5 9 12 2 22 8 22 13 0 5 2 9 5 9 3 0 5 -8 5 -19z m3070 -55 c0 -2 -7
-6 -15 -10 -8 -3 -15 -1 -15 4 0 6 7 10 15 10 8 0 15 -2 15 -4z m-2970 -26 c0
-5 -4 -10 -10 -10 -5 0 -10 5 -10 10 0 6 5 10 10 10 6 0 10 -4 10 -10z m-40
-20 c0 -5 -7 -10 -16 -10 -8 0 -12 5 -9 10 3 6 10 10 16 10 5 0 9 -4 9 -10z
m2944 -95 c-6 -16 -24 -21 -24 -7 0 11 11 22 21 22 5 0 6 -7 3 -15z m-104 -9
c0 -2 -7 -7 -16 -10 -8 -3 -12 -2 -9 4 6 10 25 14 25 6z m-140 -26 c0 -5 -5
-10 -11 -10 -5 0 -7 5 -4 10 3 6 8 10 11 10 2 0 4 -4 4 -10z m185 -39 c-3 -6
-11 -11 -17 -11 -6 0 -6 6 2 15 14 17 26 13 15 -4z m-170 -1 c3 -5 1 -10 -4
-10 -6 0 -11 5 -11 10 0 6 2 10 4 10 3 0 8 -4 11 -10z m45 -20 c-8 -5 -17 -7
-19 -4 -3 3 1 9 9 14 8 5 17 7 19 4 3 -3 -1 -9 -9 -14z m299 -1 c-16 -10 -23
-4 -14 10 3 6 11 8 17 5 6 -4 5 -9 -3 -15z m-399 -3 c0 -3 -4 -8 -10 -11 -5
-3 -10 -1 -10 4 0 6 5 11 10 11 6 0 10 -2 10 -4z m-60 -70 c0 -2 -7 -6 -15
-10 -8 -3 -15 -1 -15 4 0 6 7 10 15 10 8 0 15 -2 15 -4z m100 -16 c0 -5 -4
-10 -10 -10 -5 0 -10 5 -10 10 0 6 5 10 10 10 6 0 10 -4 10 -10z m295 -42 c6
-4 2 -8 -7 -8 -10 0 -18 7 -18 17 0 9 3 12 8 7 4 -5 12 -12 17 -16z m-110 -18
c3 -5 -1 -10 -10 -10 -9 0 -13 5 -10 10 3 6 8 10 10 10 2 0 7 -4 10 -10z
m-191 -15 c3 -8 1 -15 -4 -15 -6 0 -10 7 -10 15 0 8 2 15 4 15 2 0 6 -7 10
-15z m-2627 -41 c-3 -3 -12 -4 -19 -1 -8 3 -5 6 6 6 11 1 17 -2 13 -5z m-80
-10 c-3 -3 -12 -4 -19 -1 -8 3 -5 6 6 6 11 1 17 -2 13 -5z m2943 -34 c0 -5 -7
-7 -15 -4 -8 4 -15 8 -15 10 0 2 7 4 15 4 8 0 15 -4 15 -10z m-115 -69 c-6 -5
-25 10 -25 20 0 5 6 4 14 -3 8 -7 12 -15 11 -17z m-45 9 c0 -5 -2 -10 -4 -10
-3 0 -8 5 -11 10 -3 6 -1 10 4 10 6 0 11 -4 11 -10z m-120 -65 c0 -19 -4 -36
-9 -39 -4 -3 -6 -17 -3 -31 3 -20 1 -24 -11 -19 -12 4 -14 19 -12 67 3 73 1
68 20 61 9 -4 15 -19 15 -39z m230 5 c0 -5 -4 -10 -10 -10 -5 0 -10 5 -10 10
0 6 5 10 10 10 6 0 10 -4 10 -10z m-287 -29 c2 -10 1 -25 -4 -32 -7 -12 -11
-11 -25 3 -14 14 -15 20 -4 32 17 21 27 20 33 -3z m167 -27 c0 -2 -9 -4 -21
-4 -11 0 -18 4 -14 10 5 8 35 3 35 -6z m-230 -70 c0 -8 -4 -12 -10 -9 -5 3
-10 10 -10 16 0 5 5 9 10 9 6 0 10 -7 10 -16z m405 -4 c-3 -5 -11 -10 -16 -10
-6 0 -7 5 -4 10 3 6 11 10 16 10 6 0 7 -4 4 -10z m-235 -14 c0 -3 -4 -8 -10
-11 -5 -3 -10 -1 -10 4 0 6 5 11 10 11 6 0 10 -2 10 -4z m-120 -34 c0 -15 -2
-15 -10 -2 -13 20 -13 33 0 25 6 -3 10 -14 10 -23z m240 24 c0 -3 -4 -8 -10
-11 -5 -3 -10 -1 -10 4 0 6 5 11 10 11 6 0 10 -2 10 -4z m-55 -36 c-3 -5 -11
-10 -16 -10 -6 0 -7 5 -4 10 3 6 11 10 16 10 6 0 7 -4 4 -10z m-5 -40 c0 -11
-4 -20 -10 -20 -5 0 -10 9 -10 20 0 11 5 20 10 20 6 0 10 -9 10 -20z m40 -6
c0 -8 -4 -12 -10 -9 -5 3 -10 10 -10 16 0 5 5 9 10 9 6 0 10 -7 10 -16z
m-1680 -4 c0 -5 0 -12 0 -15 -1 -3 6 -13 15 -21 26 -27 17 -32 -62 -33 -43 -1
-94 -3 -113 -5 -67 -7 -256 -17 -370 -21 -146 -5 -148 -5 -142 -27 6 -25 -5
-59 -28 -86 -16 -20 -31 -24 -100 -27 -65 -4 -82 -2 -86 10 -4 8 -10 15 -16
15 -5 0 -6 -4 -3 -10 3 -5 1 -10 -4 -10 -6 0 -11 5 -11 10 0 6 -7 10 -15 10
-21 0 -35 32 -35 82 -1 38 -2 41 -14 26 -7 -10 -27 -21 -45 -24 -23 -5 -33
-14 -38 -32 -3 -15 -16 -42 -27 -62 l-21 -35 -3 44 c-2 24 2 49 7 54 15 15 14
37 -2 37 -15 0 -37 74 -27 90 5 8 124 13 391 17 211 3 443 9 514 13 197 11
235 11 235 0z m3329 -104 c-2 -3 -33 -7 -69 -10 -44 -4 -60 -2 -50 4 14 9 128
15 119 6z m-3431 -42 c6 3 18 3 27 0 13 -5 14 -8 3 -15 -9 -6 -7 -9 8 -9 28 0
37 -35 16 -58 -10 -10 -13 -12 -9 -5 14 20 -2 53 -26 52 l-22 0 22 -9 c23 -9
22 -40 -1 -40 -30 1 -51 40 -33 60 9 10 8 12 -5 7 -11 -4 -15 -1 -13 11 2 9 4
19 4 22 1 3 5 -1 10 -9 5 -7 13 -11 19 -7z m-180 -32 l3 -31 28 30 c24 25 51
38 51 25 0 -2 3 -13 6 -23 6 -15 4 -16 -7 -5 -18 17 -26 15 -32 -9 -4 -15 1
-22 19 -29 13 -5 24 -15 24 -22 0 -10 -2 -10 -9 1 -6 9 -11 10 -15 2 -14 -21
5 -30 60 -28 31 2 58 -2 61 -7 6 -9 -116 -3 -173 9 -21 5 -42 1 -64 -10 -24
-13 -35 -14 -44 -5 -8 8 -7 10 7 5 21 -9 23 8 2 25 -21 17 -19 30 5 30 18 0
19 3 8 20 -16 25 -3 37 18 16 9 -9 19 -14 22 -11 4 3 0 10 -8 15 -10 7 -11 10
-2 10 6 0 12 7 12 16 0 29 25 8 28 -24z m262 22 c0 -14 -3 -14 -15 -4 -8 7
-15 14 -15 16 0 2 7 4 15 4 8 0 15 -7 15 -16z m30 6 c0 -5 -2 -10 -4 -10 -3 0
-8 5 -11 10 -3 6 -1 10 4 10 6 0 11 -4 11 -10z m45 0 c-27 -12 -35 -12 -35 0
0 6 12 10 28 9 24 0 25 -1 7 -9z m2485 0 c0 -5 -8 -10 -17 -10 -15 0 -16 2 -3
10 19 12 20 12 20 0z m-2690 -10 c0 -5 -7 -10 -15 -10 -8 0 -15 5 -15 10 0 6
7 10 15 10 8 0 15 -4 15 -10z m1894 1 c3 -5 -1 -14 -9 -21 -13 -10 -15 -9 -15
9 0 21 14 28 24 12z m-1661 -15 c17 -13 15 -16 -26 -34 -24 -11 -48 -25 -51
-31 -4 -6 -12 -11 -18 -11 -14 0 39 42 71 56 l26 12 -25 10 c-14 6 -18 11 -10
11 8 0 23 -6 33 -13z m-545 -23 c4 -29 -31 -49 -49 -27 -14 18 2 41 21 29 9
-6 9 -10 -1 -17 -12 -8 -11 -9 0 -6 21 6 25 24 6 31 -40 16 -59 -21 -28 -55 9
-10 11 -18 5 -18 -6 0 -19 11 -27 24 -24 36 -5 68 38 64 24 -2 33 -8 35 -25z
m-75 -61 c15 -8 34 -11 42 -9 7 3 26 2 42 -3 25 -7 22 -8 -20 -9 -27 -1 -57 4
-68 10 -15 8 -25 7 -37 -3 -15 -12 -16 -11 -3 4 11 16 10 19 -10 27 -13 6 -35
20 -49 32 -19 16 -14 15 25 -7 28 -15 63 -34 78 -42z m621 29 c-10 -10 -21
-16 -24 -14 -3 3 4 11 14 19 28 20 33 17 10 -5z m2791 9 c-3 -5 -11 -10 -16
-10 -6 0 -7 5 -4 10 3 6 11 10 16 10 6 0 7 -4 4 -10z m-3305 -18 c0 -4 -9 -8
-19 -8 -11 0 -17 4 -15 8 3 4 12 8 20 8 8 0 14 -4 14 -8z m380 -27 c0 -11 -29
-11 -33 -1 -4 10 1 12 14 9 10 -3 19 -7 19 -8z m-824 -27 c-3 -13 -6 -26 -6
-30 0 -16 -30 5 -30 21 0 21 9 31 28 31 10 0 13 -7 8 -22z m72 -17 c2 -23 0
-31 -8 -26 -6 4 -9 17 -6 30 3 13 1 26 -4 28 -6 3 -5 4 2 3 7 -1 14 -17 16
-35z m-38 -8 c0 -32 -11 -24 -14 11 -2 14 1 23 5 20 5 -3 9 -17 9 -31z m97 -7
c1 -44 -12 -36 -22 13 -6 26 -4 32 6 29 8 -3 15 -21 16 -42z m3188 -1 c-9 -20
-18 -35 -21 -32 -3 2 3 21 12 41 23 47 29 40 9 -9z m108 -1 c-10 -19 -19 -31
-21 -24 -4 10 24 60 33 60 3 0 -3 -16 -12 -36z m124 2 c-7 -14 -13 -23 -15
-21 -7 6 9 45 18 45 4 0 3 -11 -3 -24z m-294 -1 c-3 -9 -8 -14 -10 -11 -3 3
-2 9 2 15 9 16 15 13 8 -4z m568 -12 c-8 -15 -10 -15 -11 -2 0 17 10 32 18 25
2 -3 -1 -13 -7 -23z m162 0 c-3 -10 -10 -23 -14 -28 -4 -6 -17 -36 -29 -68
-12 -32 -24 -56 -26 -54 -7 6 59 167 68 167 4 0 5 -8 1 -17z m-323 -28 c-6
-15 -13 -25 -16 -23 -2 3 1 17 7 32 16 34 23 27 9 -9z m454 -56 c-33 -85 -53
-127 -54 -112 0 15 71 185 76 180 2 -2 -8 -33 -22 -68z m-609 4 c-14 -26 -23
-37 -19 -23 9 35 34 83 40 77 3 -3 -6 -27 -21 -54z m-229 10 c-8 -15 -15 -25
-16 -21 0 12 23 58 27 54 3 -2 -2 -17 -11 -33z m115 10 c-12 -20 -14 -14 -5
12 4 9 9 14 11 11 3 -2 0 -13 -6 -23z m240 -37 c-14 -36 -22 -33 -9 5 6 16 12
28 14 26 3 -2 0 -16 -5 -31z m-380 -33 c-12 -20 -14 -14 -5 12 4 9 9 14 11 11
3 -2 0 -13 -6 -23z m350 -26 c-10 -9 -11 -8 -5 6 3 10 9 15 12 12 3 -3 0 -11
-7 -18z m288 -71 c-11 -32 -23 -55 -25 -53 -3 2 5 30 17 61 12 31 24 55 26 53
2 -3 -6 -30 -18 -61z m-313 -3 c-8 -15 -15 -25 -16 -21 0 12 23 58 27 54 3 -2
-2 -17 -11 -33z m465 -34 c-5 -13 -10 -19 -10 -12 -1 15 10 45 15 40 3 -2 0
-15 -5 -28z m-201 -215 c-32 -8 -245 -21 -255 -15 -5 3 13 8 40 11 60 7 236
10 215 4z"/>
<path d="M380 1695 c0 -8 7 -15 16 -15 14 0 14 3 4 15 -7 8 -14 15 -16 15 -2
0 -4 -7 -4 -15z"/>
<path d="M475 1690 c-3 -5 1 -10 9 -10 8 0 18 5 21 10 3 6 -1 10 -9 10 -8 0
-18 -4 -21 -10z"/>
<path d="M320 1641 c0 -5 9 -7 20 -4 11 3 20 7 20 9 0 2 -9 4 -20 4 -11 0 -20
-4 -20 -9z"/>
<path d="M500 1630 c0 -10 32 -30 49 -30 20 0 11 17 -14 28 -31 14 -35 15 -35
2z"/>
<path d="M434 1586 c-8 -21 3 -49 16 -41 5 3 10 15 10 25 0 25 -18 36 -26 16z"/>
<path d="M1165 1560 c3 -5 8 -10 11 -10 2 0 4 5 4 10 0 6 -5 10 -11 10 -5 0
-7 -4 -4 -10z"/>
<path d="M2082 4587 c14 -7 36 -21 47 -31 25 -22 28 -10 5 22 -10 15 -25 22
-47 21 l-32 -1 27 -11z"/>
<path d="M2331 4584 c17 -20 97 -37 145 -30 25 3 64 14 87 25 l42 18 -142 -1
c-103 -1 -139 -4 -132 -12z"/>
<path d="M3514 4583 c2 -9 8 -19 15 -21 10 -3 10 0 2 17 -14 25 -20 27 -17 4z"/>
<path d="M4500 4593 c0 -11 51 -33 62 -27 5 3 7 0 6 -7 -2 -7 5 -15 15 -17 13
-3 17 3 17 27 0 30 -1 31 -50 31 -27 0 -50 -3 -50 -7z"/>
<path d="M2180 4541 c0 -6 4 -13 10 -16 6 -3 7 1 4 9 -7 18 -14 21 -14 7z"/>
<path d="M2636 4475 c-3 -8 -1 -15 4 -15 6 0 10 7 10 15 0 8 -2 15 -4 15 -2 0
-6 -7 -10 -15z"/>
<path d="M4353 4145 c-3 -9 -3 -18 0 -22 10 -10 37 6 37 22 0 20 -29 20 -37 0z"/>
<path d="M4342 4083 c3 -31 30 -63 54 -63 8 0 12 -4 9 -10 -3 -6 5 -10 19 -10
18 0 24 -4 20 -15 -4 -10 0 -15 15 -15 12 0 21 -6 21 -13 0 -7 19 -20 43 -29
29 -10 41 -20 39 -32 -2 -10 4 -16 18 -16 19 0 20 6 20 90 l0 90 -29 0 c-17 0
-33 5 -36 10 -3 6 -17 10 -31 10 -13 0 -24 -4 -24 -10 0 -5 11 -10 24 -10 25
0 43 -15 29 -23 -5 -3 -30 -3 -56 0 -46 5 -47 6 -26 21 17 11 18 16 8 23 -8 5
-24 9 -36 9 -13 0 -23 5 -23 10 0 6 -13 10 -30 10 -26 0 -30 -3 -28 -27z"/>
<path d="M4115 4010 c3 -5 10 -10 16 -10 5 0 9 5 9 10 0 6 -7 10 -16 10 -8 0
-12 -4 -9 -10z"/>
<path d="M0 3915 c0 -18 5 -25 19 -25 29 0 33 14 10 33 -26 22 -29 22 -29 -8z"/>
<path d="M3260 640 c0 -5 5 -10 10 -10 6 0 10 5 10 10 0 6 -4 10 -10 10 -5 0
-10 -4 -10 -10z"/>
<path d="M3220 624 c0 -8 5 -12 10 -9 6 3 10 10 10 16 0 5 -4 9 -10 9 -5 0
-10 -7 -10 -16z"/>
<path d="M3290 620 c-8 -5 -11 -12 -8 -16 4 -3 14 1 23 10 18 17 9 21 -15 6z"/>
<path d="M3191 593 c-17 -18 18 -18 54 1 l27 14 -34 -1 c-19 0 -40 -7 -47 -14z"/>
<path d="M3330 600 c20 -13 33 -13 25 0 -3 6 -14 10 -23 10 -15 0 -15 -2 -2
-10z"/>
<path d="M3095 530 c3 -5 1 -10 -4 -10 -18 0 -12 -35 9 -53 15 -13 19 -24 14
-44 -5 -18 -3 -24 4 -19 8 4 10 2 6 -7 -3 -9 -13 -13 -25 -10 -21 6 -27 -13
-6 -20 9 -3 9 -7 0 -19 -7 -8 -10 -18 -6 -21 3 -4 -6 -7 -20 -7 -21 0 -27 5
-28 23 -1 18 -2 17 -10 -8 -5 -16 -6 -37 -3 -45 4 -11 2 -12 -6 -4 -5 5 -11
35 -11 65 -2 56 -10 69 -46 69 -18 0 -22 -6 -21 -30 1 -25 5 -30 25 -30 13 0
23 -6 23 -14 0 -8 3 -21 6 -30 4 -11 -2 -19 -17 -25 l-24 -10 25 -1 c14 -1 19
-4 13 -7 -20 -7 -15 -23 6 -23 21 0 37 -17 27 -27 -4 -4 -12 -1 -18 5 -7 7
-21 12 -32 12 -18 -1 -17 -3 7 -16 38 -20 61 -11 55 21 -6 27 13 50 34 42 8
-4 7 -6 -4 -6 -10 -1 -18 -8 -18 -17 0 -10 6 -14 15 -10 11 4 15 -2 15 -23 0
-16 3 -43 6 -60 7 -35 -10 -43 -32 -13 -12 16 -13 16 -14 -4 0 -12 10 -26 23
-33 19 -10 17 -11 -18 -5 -22 3 -43 11 -47 17 -10 16 -22 1 -14 -19 4 -11 13
-14 31 -10 23 6 25 4 25 -28 0 -19 -5 -38 -10 -41 -8 -5 -7 -11 1 -21 9 -12
74 -14 375 -14 357 0 364 0 364 20 0 14 7 20 21 20 11 0 17 4 14 10 -3 5 1 10
9 10 15 0 32 -37 22 -47 -3 -4 -6 1 -6 10 0 20 -4 21 -31 7 -41 -22 -17 -30
91 -30 81 0 110 3 110 13 0 8 4 7 10 -3 8 -12 10 -10 10 9 0 16 -4 21 -15 17
-8 -3 -14 0 -12 7 1 7 -8 12 -20 11 -13 0 -23 3 -23 8 0 4 5 8 12 8 9 0 9 3 0
12 -8 8 -8 17 -1 30 11 21 4 38 -17 38 -8 0 -14 10 -14 24 0 27 -23 50 -42 43
-8 -3 -3 -9 12 -15 33 -14 11 -15 -28 -1 -22 7 -36 7 -49 0 -17 -10 -17 -10 0
-11 21 0 22 -16 1 -24 -28 -11 -49 -6 -67 14 -9 11 -12 20 -7 20 16 0 12 48
-6 75 -9 14 -23 25 -30 25 -17 0 -18 17 -1 23 6 2 8 8 4 13 -4 5 -12 2 -17 -6
-7 -12 -12 -12 -21 -3 -9 9 -9 16 1 28 15 18 0 21 -18 3 -9 -9 -15 -9 -24 0
-10 10 -10 15 1 21 18 12 6 41 -19 48 -11 3 -20 9 -20 14 0 5 -4 9 -10 9 -17
0 -11 -25 10 -40 30 -21 25 -40 -10 -40 -16 0 -30 5 -30 10 0 6 -7 10 -15 10
-8 0 -15 8 -16 18 0 9 -3 12 -5 6 -2 -6 -18 -8 -34 -6 -25 4 -30 1 -30 -17 0
-14 -6 -21 -20 -21 -13 0 -18 -5 -14 -15 10 -26 -12 -16 -24 10 -6 14 -19 25
-27 25 -15 0 -15 -2 0 -16 9 -9 14 -23 11 -30 -3 -9 2 -14 15 -14 16 0 18 -4
13 -27 -6 -22 -4 -25 10 -20 10 4 16 1 16 -8 0 -9 -10 -15 -22 -16 -17 -1 -15
-3 11 -10 40 -12 33 -24 -13 -21 -20 2 -37 -3 -45 -12 -8 -9 -21 -16 -30 -16
-17 0 -44 47 -35 61 10 16 24 9 24 -11 0 -12 7 -20 16 -20 13 0 14 3 4 15 -6
8 -9 19 -6 24 4 5 -6 11 -21 14 l-28 4 33 8 c47 11 41 29 -8 21 -31 -5 -40 -3
-40 8 0 8 11 17 24 20 29 7 31 33 9 85 -12 25 -17 30 -24 20 -6 -10 -9 -8 -9
10 0 19 -4 23 -25 19 -14 -3 -25 -1 -25 4 0 5 -4 7 -9 3 -5 -3 -30 -9 -55 -14
l-46 -8 0 38 c0 29 -4 39 -16 39 -8 0 -12 -4 -9 -10z m418 -163 c3 -8 -3 -13
-14 -13 -11 0 -19 6 -19 13 0 7 6 13 14 13 8 0 16 -6 19 -13z m127 -27 c0 -5
-4 -10 -10 -10 -5 0 -10 5 -10 10 0 6 5 10 10 10 6 0 10 -4 10 -10z m-142 -27
c-10 -2 -28 -2 -40 0 -13 2 -5 4 17 4 22 1 32 -1 23 -4z m169 -29 c-3 -3 -12
-4 -19 -1 -8 3 -5 6 6 6 11 1 17 -2 13 -5z m-317 -104 c0 -5 -2 -10 -4 -10 -3
0 -8 5 -11 10 -3 6 -1 10 4 10 6 0 11 -4 11 -10z m485 -40 c-3 -5 -13 -10 -21
-10 -8 0 -14 5 -14 10 0 6 9 10 21 10 11 0 17 -4 14 -10z m-14 -40 c11 0 19
-4 19 -10 0 -16 -63 -11 -85 7 -19 15 -18 15 14 9 18 -3 42 -6 52 -6z m-731
-10 c0 -5 -4 -10 -10 -10 -5 0 -10 5 -10 10 0 6 5 10 10 10 6 0 10 -4 10 -10z"/>
<path d="M2990 461 c0 -6 5 -13 10 -16 6 -3 10 1 10 9 0 9 -4 16 -10 16 -5 0
-10 -4 -10 -9z"/>
<path d="M3486 454 c-4 -10 -1 -14 6 -12 15 5 23 28 10 28 -5 0 -13 -7 -16
-16z"/>
<path d="M2930 450 l-35 -7 38 -2 c20 0 37 4 37 9 0 6 -1 9 -2 9 -2 -1 -19 -5
-38 -9z"/>
<path d="M3330 450 c0 -5 5 -10 11 -10 5 0 7 5 4 10 -3 6 -8 10 -11 10 -2 0
-4 -4 -4 -10z"/>
<path d="M3520 451 c0 -5 7 -12 16 -15 8 -3 13 -10 9 -15 -3 -5 -1 -12 5 -16
5 -3 10 3 10 14 0 11 -9 25 -20 31 -11 6 -20 7 -20 1z"/>
<path d="M505 441 c-43 -4 -65 -9 -57 -14 14 -10 176 1 207 14 23 9 -38 9
-150 0z"/>
<path d="M118 413 c7 -3 16 -2 19 1 4 3 -2 6 -13 5 -11 0 -14 -3 -6 -6z"/>
<path d="M190 410 c0 -5 9 -10 19 -10 11 0 23 5 26 10 4 6 -5 10 -19 10 -14 0
-26 -4 -26 -10z"/>
<path d="M3575 390 c3 -5 8 -10 11 -10 2 0 4 5 4 10 0 6 -5 10 -11 10 -5 0 -7
-4 -4 -10z"/>
<path d="M3375 300 c3 -5 8 -10 11 -10 2 0 4 5 4 10 0 6 -5 10 -11 10 -5 0 -7
-4 -4 -10z"/>
<path d="M3805 240 c-3 -5 -1 -10 4 -10 6 0 11 5 11 10 0 6 -2 10 -4 10 -3 0
-8 -4 -11 -10z"/>
<path d="M2978 195 c12 -9 22 -23 22 -31 0 -8 5 -12 10 -9 21 13 5 39 -30 50
l-25 7 23 -17z"/>
<path d="M797 132 c-4 -6 -14 -9 -22 -6 -9 4 -18 -1 -21 -11 -4 -9 -13 -14
-21 -11 -9 4 -17 -1 -20 -14 -3 -11 -12 -20 -20 -20 -9 0 -13 -6 -9 -15 3 -9
0 -15 -8 -15 -8 0 -16 -9 -19 -20 -5 -19 0 -20 94 -20 l99 0 0 29 c0 16 3 43
6 60 6 28 4 31 -19 31 -14 0 -27 5 -29 12 -3 9 -6 9 -11 0z"/>
<path d="M2107 43 c-15 -15 -7 -43 13 -43 15 0 20 7 20 25 0 24 -18 34 -33 18z
m23 -7 c0 -3 -4 -8 -10 -11 -5 -3 -10 -1 -10 4 0 6 5 11 10 11 6 0 10 -2 10
-4z"/>
<path d="M2838 43 c7 -3 16 -2 19 1 4 3 -2 6 -13 5 -11 0 -14 -3 -6 -6z"/>
<path d="M2882 30 c0 -14 2 -19 5 -12 2 6 2 18 0 25 -3 6 -5 1 -5 -13z"/>
<path d="M2968 43 c6 -2 12 -11 12 -18 0 -14 29 -29 38 -20 3 3 0 5 -6 5 -7 0
-12 6 -12 14 0 13 -22 27 -38 25 -4 0 -1 -3 6 -6z"/>
<path d="M2940 10 c0 -5 5 -10 11 -10 5 0 7 5 4 10 -3 6 -8 10 -11 10 -2 0 -4
-4 -4 -10z"/>
</g>
</svg>
